<mxfile host="Electron" modified="2023-12-18T17:06:57.029Z" agent="Mozilla/5.0 (Windows NT 10.0; Win64; x64) AppleWebKit/537.36 (KHTML, like Gecko) draw.io/22.1.2 Chrome/114.0.5735.289 Electron/25.9.4 Safari/537.36" etag="-s_pnEFbAYrcGZRMHE1E" version="22.1.2" type="device">
  <diagram name="Page-1" id="WOxgNH0ywhi0wSrVtob0">
    <mxGraphModel dx="2173" dy="1424" grid="0" gridSize="10" guides="1" tooltips="1" connect="1" arrows="1" fold="1" page="0" pageScale="1" pageWidth="827" pageHeight="1169" math="0" shadow="0">
      <root>
        <mxCell id="0" />
        <mxCell id="1" parent="0" />
        <mxCell id="H-WDPKaWVRJ07h-kpi3L-46" value="" style="group;fontFamily=Helvetica;" vertex="1" connectable="0" parent="1">
          <mxGeometry x="130" y="-148" width="310" height="228" as="geometry" />
        </mxCell>
        <mxCell id="H-WDPKaWVRJ07h-kpi3L-47" value="" style="rounded=1;whiteSpace=wrap;html=1;fontSize=16;dashed=1;strokeColor=#7EA6E0;arcSize=2;fontFamily=Helvetica;" vertex="1" parent="H-WDPKaWVRJ07h-kpi3L-46">
          <mxGeometry width="310" height="228" as="geometry" />
        </mxCell>
        <mxCell id="H-WDPKaWVRJ07h-kpi3L-48" value="spoke-01&lt;br&gt;10.13.1.0/24" style="aspect=fixed;html=1;points=[];align=left;image;fontSize=12;image=img/lib/azure2/networking/Virtual_Networks.svg;fontColor=#333333;fontFamily=Helvetica;" vertex="1" parent="H-WDPKaWVRJ07h-kpi3L-46">
          <mxGeometry x="7" y="5" width="23" height="13.73" as="geometry" />
        </mxCell>
        <mxCell id="H-WDPKaWVRJ07h-kpi3L-49" value="services&lt;br&gt;10.13.1.64/26" style="rounded=1;whiteSpace=wrap;html=1;fontSize=12;arcSize=3;strokeColor=none;fillColor=#E6E6E6;align=left;verticalAlign=top;fontColor=#333333;fontFamily=Helvetica;" vertex="1" parent="H-WDPKaWVRJ07h-kpi3L-46">
          <mxGeometry x="160" y="88" width="142" height="133" as="geometry" />
        </mxCell>
        <mxCell id="H-WDPKaWVRJ07h-kpi3L-50" value="" style="group;fontFamily=Helvetica;" vertex="1" connectable="0" parent="H-WDPKaWVRJ07h-kpi3L-46">
          <mxGeometry x="7" y="88" width="142" height="133" as="geometry" />
        </mxCell>
        <mxCell id="H-WDPKaWVRJ07h-kpi3L-51" value="default&lt;br&gt;10.13.1.0/26" style="rounded=1;whiteSpace=wrap;html=1;fontSize=12;arcSize=3;strokeColor=none;fillColor=#E6E6E6;fontColor=#333333;align=left;verticalAlign=top;fontFamily=Helvetica;" vertex="1" parent="H-WDPKaWVRJ07h-kpi3L-50">
          <mxGeometry width="142" height="133" as="geometry" />
        </mxCell>
        <mxCell id="H-WDPKaWVRJ07h-kpi3L-52" value="spoke-01-vm&lt;br&gt;10.13.1.4" style="image;sketch=0;aspect=fixed;html=1;points=[];align=center;fontSize=12;image=img/lib/mscae/VirtualMachineWindows.svg;fontFamily=Helvetica;" vertex="1" parent="H-WDPKaWVRJ07h-kpi3L-50">
          <mxGeometry x="46" y="40" width="50" height="46" as="geometry" />
        </mxCell>
        <mxCell id="H-WDPKaWVRJ07h-kpi3L-53" value="west europe" style="shadow=0;dashed=0;html=1;strokeColor=none;fillColor=#4495D1;labelPosition=right;verticalLabelPosition=middle;verticalAlign=middle;align=left;outlineConnect=0;shape=mxgraph.veeam.globe;fontSize=12;fontColor=#808080;direction=south;rotation=0;fontFamily=Helvetica;" vertex="1" parent="H-WDPKaWVRJ07h-kpi3L-46">
          <mxGeometry x="224.5" y="5.230000000000018" width="13" height="13.5" as="geometry" />
        </mxCell>
        <mxCell id="H-WDPKaWVRJ07h-kpi3L-54" value="" style="group;fontFamily=Helvetica;" vertex="1" connectable="0" parent="1">
          <mxGeometry x="130" y="100" width="310" height="228" as="geometry" />
        </mxCell>
        <mxCell id="H-WDPKaWVRJ07h-kpi3L-55" value="" style="rounded=1;whiteSpace=wrap;html=1;fontSize=16;dashed=1;strokeColor=#7EA6E0;arcSize=2;fontFamily=Helvetica;" vertex="1" parent="H-WDPKaWVRJ07h-kpi3L-54">
          <mxGeometry width="310" height="228" as="geometry" />
        </mxCell>
        <mxCell id="H-WDPKaWVRJ07h-kpi3L-56" value="spoke-02&lt;br&gt;10.13.2.0/24" style="aspect=fixed;html=1;points=[];align=left;image;fontSize=12;image=img/lib/azure2/networking/Virtual_Networks.svg;fontColor=#333333;fontFamily=Helvetica;" vertex="1" parent="H-WDPKaWVRJ07h-kpi3L-54">
          <mxGeometry x="7" y="5" width="23" height="13.73" as="geometry" />
        </mxCell>
        <mxCell id="H-WDPKaWVRJ07h-kpi3L-57" value="services&lt;br&gt;10.13.2.64/26" style="rounded=1;whiteSpace=wrap;html=1;fontSize=12;arcSize=3;strokeColor=none;fillColor=#E6E6E6;align=left;verticalAlign=top;fontColor=#333333;fontFamily=Helvetica;" vertex="1" parent="H-WDPKaWVRJ07h-kpi3L-54">
          <mxGeometry x="160" y="88" width="142" height="133" as="geometry" />
        </mxCell>
        <mxCell id="H-WDPKaWVRJ07h-kpi3L-58" value="" style="group;fontFamily=Helvetica;" vertex="1" connectable="0" parent="H-WDPKaWVRJ07h-kpi3L-54">
          <mxGeometry x="7" y="88" width="142" height="133" as="geometry" />
        </mxCell>
        <mxCell id="H-WDPKaWVRJ07h-kpi3L-59" value="default&lt;br&gt;10.13.2.0/26" style="rounded=1;whiteSpace=wrap;html=1;fontSize=12;arcSize=3;strokeColor=none;fillColor=#E6E6E6;fontColor=#333333;align=left;verticalAlign=top;fontFamily=Helvetica;" vertex="1" parent="H-WDPKaWVRJ07h-kpi3L-58">
          <mxGeometry width="142" height="133" as="geometry" />
        </mxCell>
        <mxCell id="H-WDPKaWVRJ07h-kpi3L-60" value="spoke-01-vm&lt;br&gt;10.13.2.4" style="image;sketch=0;aspect=fixed;html=1;points=[];align=center;fontSize=12;image=img/lib/mscae/VirtualMachineWindows.svg;fontFamily=Helvetica;" vertex="1" parent="H-WDPKaWVRJ07h-kpi3L-58">
          <mxGeometry x="46" y="40" width="50" height="46" as="geometry" />
        </mxCell>
        <mxCell id="H-WDPKaWVRJ07h-kpi3L-61" value="west europe" style="shadow=0;dashed=0;html=1;strokeColor=none;fillColor=#4495D1;labelPosition=right;verticalLabelPosition=middle;verticalAlign=middle;align=left;outlineConnect=0;shape=mxgraph.veeam.globe;fontSize=12;fontColor=#808080;direction=south;rotation=0;fontFamily=Helvetica;" vertex="1" parent="H-WDPKaWVRJ07h-kpi3L-54">
          <mxGeometry x="224.5" y="5.000000000000028" width="13" height="13.5" as="geometry" />
        </mxCell>
        <mxCell id="H-WDPKaWVRJ07h-kpi3L-62" value="" style="group;fontFamily=Helvetica;" vertex="1" connectable="0" parent="1">
          <mxGeometry x="130" y="340" width="310" height="228" as="geometry" />
        </mxCell>
        <mxCell id="H-WDPKaWVRJ07h-kpi3L-63" value="" style="rounded=1;whiteSpace=wrap;html=1;fontSize=16;dashed=1;strokeColor=#7EA6E0;arcSize=2;fontFamily=Helvetica;" vertex="1" parent="H-WDPKaWVRJ07h-kpi3L-62">
          <mxGeometry y="6" width="310" height="228" as="geometry" />
        </mxCell>
        <mxCell id="H-WDPKaWVRJ07h-kpi3L-64" value="spoke-03&lt;br&gt;10.13.3.0/24" style="aspect=fixed;html=1;points=[];align=left;image;fontSize=12;image=img/lib/azure2/networking/Virtual_Networks.svg;fontColor=#333333;fontFamily=Helvetica;" vertex="1" parent="H-WDPKaWVRJ07h-kpi3L-62">
          <mxGeometry x="7" y="11" width="23" height="13.73" as="geometry" />
        </mxCell>
        <mxCell id="H-WDPKaWVRJ07h-kpi3L-65" value="services&lt;br&gt;10.13.3.64/26" style="rounded=1;whiteSpace=wrap;html=1;fontSize=12;arcSize=3;strokeColor=none;fillColor=#E6E6E6;align=left;verticalAlign=top;fontColor=#333333;fontFamily=Helvetica;" vertex="1" parent="H-WDPKaWVRJ07h-kpi3L-62">
          <mxGeometry x="160" y="94" width="142" height="133" as="geometry" />
        </mxCell>
        <mxCell id="H-WDPKaWVRJ07h-kpi3L-66" value="default&lt;br&gt;10.13.3.0/26" style="rounded=1;whiteSpace=wrap;html=1;fontSize=12;arcSize=3;strokeColor=none;fillColor=#E6E6E6;fontColor=#333333;align=left;verticalAlign=top;fontFamily=Helvetica;" vertex="1" parent="H-WDPKaWVRJ07h-kpi3L-62">
          <mxGeometry x="7" y="94" width="142" height="133" as="geometry" />
        </mxCell>
        <mxCell id="H-WDPKaWVRJ07h-kpi3L-67" value="spoke-03-vm&lt;br&gt;10.13.3.4" style="image;sketch=0;aspect=fixed;html=1;points=[];align=center;fontSize=12;image=img/lib/mscae/VM_Linux.svg;fontColor=#333333;fontFamily=Helvetica;" vertex="1" parent="H-WDPKaWVRJ07h-kpi3L-62">
          <mxGeometry x="53" y="137.5" width="50" height="46" as="geometry" />
        </mxCell>
        <mxCell id="H-WDPKaWVRJ07h-kpi3L-68" value="north europe" style="shadow=0;dashed=0;html=1;strokeColor=none;fillColor=#4495D1;labelPosition=right;verticalLabelPosition=middle;verticalAlign=middle;align=left;outlineConnect=0;shape=mxgraph.veeam.globe;fontSize=12;fontColor=#808080;direction=south;rotation=0;fontFamily=Helvetica;" vertex="1" parent="H-WDPKaWVRJ07h-kpi3L-62">
          <mxGeometry x="224.5" y="11.230000000000018" width="13" height="13.5" as="geometry" />
        </mxCell>
        <mxCell id="H-WDPKaWVRJ07h-kpi3L-69" value="" style="rounded=1;whiteSpace=wrap;html=1;fontSize=16;dashed=1;strokeColor=#7EA6E0;arcSize=2;fontFamily=Helvetica;" vertex="1" parent="1">
          <mxGeometry x="-127.26" y="-100" width="187.26" height="660" as="geometry" />
        </mxCell>
        <mxCell id="H-WDPKaWVRJ07h-kpi3L-70" value="hub-lab-net&lt;br&gt;10.12.0.0/16" style="aspect=fixed;html=1;points=[];align=left;image;fontSize=12;image=img/lib/azure2/networking/Virtual_Networks.svg;fontColor=#333333;fontFamily=Helvetica;" vertex="1" parent="1">
          <mxGeometry x="-120.25999999999999" y="-95" width="23" height="13.73" as="geometry" />
        </mxCell>
        <mxCell id="H-WDPKaWVRJ07h-kpi3L-71" value="" style="group;fontFamily=Helvetica;" vertex="1" connectable="0" parent="1">
          <mxGeometry x="-117.25999999999999" y="-30" width="142" height="133" as="geometry" />
        </mxCell>
        <mxCell id="H-WDPKaWVRJ07h-kpi3L-72" value="DefaultSubnet&lt;br&gt;10.12.1.0/24" style="rounded=1;whiteSpace=wrap;html=1;fontSize=12;arcSize=3;strokeColor=none;fillColor=#E6E6E6;fontColor=#333333;align=left;verticalAlign=top;fontFamily=Helvetica;" vertex="1" parent="H-WDPKaWVRJ07h-kpi3L-71">
          <mxGeometry width="142" height="133" as="geometry" />
        </mxCell>
        <mxCell id="H-WDPKaWVRJ07h-kpi3L-73" value="hub-vm-01&lt;br&gt;10.12.1.4" style="image;sketch=0;aspect=fixed;html=1;points=[];align=center;fontSize=12;image=img/lib/mscae/VirtualMachineWindows.svg;fontFamily=Helvetica;" vertex="1" parent="H-WDPKaWVRJ07h-kpi3L-71">
          <mxGeometry x="46" y="40" width="50" height="46" as="geometry" />
        </mxCell>
        <mxCell id="H-WDPKaWVRJ07h-kpi3L-74" value="AzureFirewallSubnet&lt;br&gt;10.12.2.0/24" style="rounded=1;whiteSpace=wrap;html=1;fontSize=12;arcSize=3;strokeColor=none;fillColor=#E6E6E6;fontColor=#333333;align=left;verticalAlign=top;fontFamily=Helvetica;" vertex="1" parent="1">
          <mxGeometry x="-117.25999999999999" y="270" width="142" height="133" as="geometry" />
        </mxCell>
        <mxCell id="H-WDPKaWVRJ07h-kpi3L-75" value="" style="group;fontFamily=Helvetica;" vertex="1" connectable="0" parent="1">
          <mxGeometry x="-117.25999999999999" y="120" width="142" height="133" as="geometry" />
        </mxCell>
        <mxCell id="H-WDPKaWVRJ07h-kpi3L-76" value="AzureFirewallSubnet&lt;br&gt;10.12.3.0/24" style="rounded=1;whiteSpace=wrap;html=1;fontSize=12;arcSize=3;strokeColor=none;fillColor=#E6E6E6;fontColor=#333333;align=left;verticalAlign=top;fontFamily=Helvetica;" vertex="1" parent="H-WDPKaWVRJ07h-kpi3L-75">
          <mxGeometry width="142" height="133" as="geometry" />
        </mxCell>
        <mxCell id="H-WDPKaWVRJ07h-kpi3L-77" value="lab-firewall&lt;br&gt;10.12.3.4" style="image;sketch=0;aspect=fixed;html=1;points=[];align=center;fontSize=12;image=img/lib/mscae/Azure_Firewall.svg;fontFamily=Helvetica;" vertex="1" parent="H-WDPKaWVRJ07h-kpi3L-75">
          <mxGeometry x="46" y="42" width="50" height="50" as="geometry" />
        </mxCell>
        <mxCell id="H-WDPKaWVRJ07h-kpi3L-78" value="lab-bastion" style="image;aspect=fixed;html=1;points=[];align=center;fontSize=12;image=img/lib/azure2/networking/Bastions.svg;fontColor=#333333;fontFamily=Helvetica;" vertex="1" parent="1">
          <mxGeometry x="-71.25999999999999" y="320" width="35.82" height="42" as="geometry" />
        </mxCell>
        <mxCell id="H-WDPKaWVRJ07h-kpi3L-79" value="lab-bastion-ip" style="image;aspect=fixed;html=1;points=[];align=center;fontSize=12;image=img/lib/azure2/networking/Public_IP_Addresses.svg;fontFamily=Helvetica;" vertex="1" parent="1">
          <mxGeometry x="-197.26" y="326" width="37.5" height="30" as="geometry" />
        </mxCell>
        <mxCell id="H-WDPKaWVRJ07h-kpi3L-81" value="peering" style="endArrow=classic;startArrow=classic;html=1;rounded=0;fontSize=12;startSize=8;endSize=8;strokeColor=#7EA6E0;fontFamily=Helvetica;" edge="1" parent="1">
          <mxGeometry width="50" height="50" relative="1" as="geometry">
            <mxPoint x="-459.5" y="-31.249999999999996" as="sourcePoint" />
            <mxPoint x="-349.5" y="-31.249999999999996" as="targetPoint" />
            <mxPoint as="offset" />
          </mxGeometry>
        </mxCell>
        <mxCell id="H-WDPKaWVRJ07h-kpi3L-83" value="" style="endArrow=none;dashed=1;html=1;rounded=0;fontSize=12;startSize=8;endSize=8;strokeColor=#808080;fontFamily=Helvetica;" edge="1" parent="1">
          <mxGeometry width="50" height="50" relative="1" as="geometry">
            <mxPoint x="-160.26" y="340.65999999999997" as="sourcePoint" />
            <mxPoint x="-71.25999999999999" y="341.15999999999997" as="targetPoint" />
          </mxGeometry>
        </mxCell>
        <mxCell id="H-WDPKaWVRJ07h-kpi3L-84" value="west europe" style="shadow=0;dashed=0;html=1;strokeColor=none;fillColor=#4495D1;labelPosition=right;verticalLabelPosition=middle;verticalAlign=middle;align=left;outlineConnect=0;shape=mxgraph.veeam.globe;fontSize=12;fontColor=#808080;direction=south;rotation=-90;fontFamily=Helvetica;" vertex="1" parent="1">
          <mxGeometry x="43" y="-27" width="13" height="13.5" as="geometry" />
        </mxCell>
        <mxCell id="H-WDPKaWVRJ07h-kpi3L-85" value="GatewaySubnet&lt;br&gt;10.12.4.0/24" style="rounded=1;whiteSpace=wrap;html=1;fontSize=12;arcSize=3;strokeColor=none;fillColor=#E6E6E6;fontColor=#333333;align=left;verticalAlign=top;fontFamily=Helvetica;" vertex="1" parent="1">
          <mxGeometry x="-117.25999999999999" y="420" width="142" height="133" as="geometry" />
        </mxCell>
        <mxCell id="H-WDPKaWVRJ07h-kpi3L-86" value="lab-gateway&lt;br&gt;" style="image;sketch=0;aspect=fixed;html=1;points=[];align=center;fontSize=12;image=img/lib/mscae/VPN_Gateway.svg;fontColor=#333333;fontFamily=Helvetica;" vertex="1" parent="1">
          <mxGeometry x="-73.23999999999998" y="473" width="37.8" height="42" as="geometry" />
        </mxCell>
        <mxCell id="H-WDPKaWVRJ07h-kpi3L-87" value="lab-gateway-ip" style="image;aspect=fixed;html=1;points=[];align=center;fontSize=12;image=img/lib/azure2/networking/Public_IP_Addresses.svg;fontFamily=Helvetica;" vertex="1" parent="1">
          <mxGeometry x="-199.24" y="485" width="37.5" height="30" as="geometry" />
        </mxCell>
        <mxCell id="H-WDPKaWVRJ07h-kpi3L-88" value="" style="endArrow=none;dashed=1;html=1;rounded=0;fontSize=12;startSize=8;endSize=8;strokeColor=#808080;fontFamily=Helvetica;" edge="1" parent="1">
          <mxGeometry width="50" height="50" relative="1" as="geometry">
            <mxPoint x="-162.24" y="499.65999999999997" as="sourcePoint" />
            <mxPoint x="-73.23999999999998" y="500.15999999999997" as="targetPoint" />
          </mxGeometry>
        </mxCell>
        <mxCell id="H-WDPKaWVRJ07h-kpi3L-89" value="" style="endArrow=classic;startArrow=classic;html=1;rounded=0;fontSize=12;startSize=8;endSize=8;strokeColor=#7EA6E0;fontFamily=Helvetica;" edge="1" parent="1">
          <mxGeometry width="50" height="50" relative="1" as="geometry">
            <mxPoint x="60" as="sourcePoint" />
            <mxPoint x="129" as="targetPoint" />
          </mxGeometry>
        </mxCell>
        <mxCell id="H-WDPKaWVRJ07h-kpi3L-90" value="" style="endArrow=classic;startArrow=classic;html=1;rounded=0;fontSize=12;startSize=8;endSize=8;strokeColor=#7EA6E0;fontFamily=Helvetica;" edge="1" parent="1">
          <mxGeometry width="50" height="50" relative="1" as="geometry">
            <mxPoint x="61" y="246" as="sourcePoint" />
            <mxPoint x="130" y="246" as="targetPoint" />
          </mxGeometry>
        </mxCell>
        <mxCell id="H-WDPKaWVRJ07h-kpi3L-91" value="" style="endArrow=classic;startArrow=classic;html=1;rounded=0;fontSize=12;startSize=8;endSize=8;strokeColor=#7EA6E0;fontFamily=Helvetica;" edge="1" parent="1">
          <mxGeometry width="50" height="50" relative="1" as="geometry">
            <mxPoint x="61" y="497" as="sourcePoint" />
            <mxPoint x="130" y="497" as="targetPoint" />
          </mxGeometry>
        </mxCell>
        <mxCell id="H-WDPKaWVRJ07h-kpi3L-93" value="" style="group" vertex="1" connectable="0" parent="1">
          <mxGeometry x="-514" y="321" width="219" height="78" as="geometry" />
        </mxCell>
        <mxCell id="H-WDPKaWVRJ07h-kpi3L-94" value="spokes-we-to-hub-routes" style="swimlane;fontStyle=0;childLayout=stackLayout;horizontal=1;startSize=26;fillColor=none;horizontalStack=0;resizeParent=1;resizeParentMax=0;resizeLast=0;collapsible=1;marginBottom=0;html=1;dashed=1;strokeColor=#66B2FF;fontFamily=Tahoma;" vertex="1" parent="H-WDPKaWVRJ07h-kpi3L-93">
          <mxGeometry width="219" height="104" as="geometry">
            <mxRectangle x="-123" y="970" width="130" height="30" as="alternateBounds" />
          </mxGeometry>
        </mxCell>
        <mxCell id="H-WDPKaWVRJ07h-kpi3L-95" value="10.13.1.0/24&amp;nbsp;-&amp;gt; 10.12.3.4" style="text;strokeColor=none;fillColor=none;align=left;verticalAlign=top;spacingLeft=4;spacingRight=4;overflow=hidden;rotatable=0;points=[[0,0.5],[1,0.5]];portConstraint=eastwest;whiteSpace=wrap;html=1;dashed=1;fontFamily=Tahoma;" vertex="1" parent="H-WDPKaWVRJ07h-kpi3L-94">
          <mxGeometry y="26" width="219" height="26" as="geometry" />
        </mxCell>
        <mxCell id="H-WDPKaWVRJ07h-kpi3L-127" value="10.13.2.0/24&amp;nbsp;-&amp;gt; 10.12.3.4" style="text;strokeColor=none;fillColor=none;align=left;verticalAlign=top;spacingLeft=4;spacingRight=4;overflow=hidden;rotatable=0;points=[[0,0.5],[1,0.5]];portConstraint=eastwest;whiteSpace=wrap;html=1;dashed=1;fontFamily=Tahoma;" vertex="1" parent="H-WDPKaWVRJ07h-kpi3L-94">
          <mxGeometry y="52" width="219" height="26" as="geometry" />
        </mxCell>
        <mxCell id="H-WDPKaWVRJ07h-kpi3L-128" value="10.13.3.0/24&amp;nbsp;-&amp;gt; 10.12.3.4" style="text;strokeColor=none;fillColor=none;align=left;verticalAlign=top;spacingLeft=4;spacingRight=4;overflow=hidden;rotatable=0;points=[[0,0.5],[1,0.5]];portConstraint=eastwest;whiteSpace=wrap;html=1;dashed=1;fontFamily=Tahoma;" vertex="1" parent="H-WDPKaWVRJ07h-kpi3L-94">
          <mxGeometry y="78" width="219" height="26" as="geometry" />
        </mxCell>
        <mxCell id="H-WDPKaWVRJ07h-kpi3L-96" value="" style="aspect=fixed;html=1;points=[];align=center;image;fontSize=12;image=img/lib/azure2/networking/Route_Tables.svg;dashed=1;strokeColor=#66B2FF;fontFamily=Tahoma;fillColor=#E6E6E6;" vertex="1" parent="H-WDPKaWVRJ07h-kpi3L-93">
          <mxGeometry x="194.26451612903224" y="1" width="24" height="23.25" as="geometry" />
        </mxCell>
        <mxCell id="H-WDPKaWVRJ07h-kpi3L-137" value="spokes-we-&lt;br&gt;to-hub-routes" style="aspect=fixed;html=1;points=[];align=left;image;fontSize=12;image=img/lib/azure2/networking/Route_Tables.svg;dashed=1;strokeColor=#66B2FF;fontFamily=Tahoma;fillColor=#E6E6E6;labelPosition=right;verticalLabelPosition=middle;verticalAlign=middle;" vertex="1" parent="1">
          <mxGeometry x="157.00451612903225" y="66.25" width="24" height="23.25" as="geometry" />
        </mxCell>
        <mxCell id="H-WDPKaWVRJ07h-kpi3L-140" value="spokes-we-&lt;br&gt;to-hub-routes" style="aspect=fixed;html=1;points=[];align=left;image;fontSize=12;image=img/lib/azure2/networking/Route_Tables.svg;dashed=1;strokeColor=#66B2FF;fontFamily=Tahoma;fillColor=#E6E6E6;labelPosition=right;verticalLabelPosition=middle;verticalAlign=middle;" vertex="1" parent="1">
          <mxGeometry x="316.00451612903225" y="66.25" width="24" height="23.25" as="geometry" />
        </mxCell>
        <mxCell id="H-WDPKaWVRJ07h-kpi3L-141" value="spokes-we-&lt;br&gt;to-hub-routes" style="aspect=fixed;html=1;points=[];align=left;image;fontSize=12;image=img/lib/azure2/networking/Route_Tables.svg;dashed=1;strokeColor=#66B2FF;fontFamily=Tahoma;fillColor=#E6E6E6;labelPosition=right;verticalLabelPosition=middle;verticalAlign=middle;" vertex="1" parent="1">
          <mxGeometry x="157.00451612903225" y="314.25" width="24" height="23.25" as="geometry" />
        </mxCell>
        <mxCell id="H-WDPKaWVRJ07h-kpi3L-142" value="spokes-we-&lt;br&gt;to-hub-routes" style="aspect=fixed;html=1;points=[];align=left;image;fontSize=12;image=img/lib/azure2/networking/Route_Tables.svg;dashed=1;strokeColor=#66B2FF;fontFamily=Tahoma;fillColor=#E6E6E6;labelPosition=right;verticalLabelPosition=middle;verticalAlign=middle;" vertex="1" parent="1">
          <mxGeometry x="310.00451612903225" y="314.25" width="24" height="23.25" as="geometry" />
        </mxCell>
        <mxCell id="H-WDPKaWVRJ07h-kpi3L-143" value="spokes-ne-&lt;br&gt;to-hub-routes" style="aspect=fixed;html=1;points=[];align=left;image;fontSize=12;image=img/lib/azure2/networking/Route_Tables.svg;dashed=1;strokeColor=#66B2FF;fontFamily=Tahoma;fillColor=#E6E6E6;labelPosition=right;verticalLabelPosition=middle;verticalAlign=middle;" vertex="1" parent="1">
          <mxGeometry x="311.00451612903225" y="564.25" width="24" height="23.25" as="geometry" />
        </mxCell>
        <mxCell id="H-WDPKaWVRJ07h-kpi3L-144" value="spokes-ne-&lt;br&gt;to-hub-routes" style="aspect=fixed;html=1;points=[];align=left;image;fontSize=12;image=img/lib/azure2/networking/Route_Tables.svg;dashed=1;strokeColor=#66B2FF;fontFamily=Tahoma;fillColor=#E6E6E6;labelPosition=right;verticalLabelPosition=middle;verticalAlign=middle;" vertex="1" parent="1">
          <mxGeometry x="160.00451612903225" y="564.25" width="24" height="23.25" as="geometry" />
        </mxCell>
        <mxCell id="H-WDPKaWVRJ07h-kpi3L-145" value="" style="group" vertex="1" connectable="0" parent="1">
          <mxGeometry x="-550" y="93" width="384" height="187" as="geometry" />
        </mxCell>
        <mxCell id="H-WDPKaWVRJ07h-kpi3L-97" value="my-firewall-policy" style="shape=ext;double=1;rounded=1;whiteSpace=wrap;html=1;strokeColor=none;fontFamily=Tahoma;fillColor=#ffe6cc;arcSize=3;align=center;verticalAlign=top;" vertex="1" parent="H-WDPKaWVRJ07h-kpi3L-145">
          <mxGeometry width="384" height="187" as="geometry" />
        </mxCell>
        <mxCell id="H-WDPKaWVRJ07h-kpi3L-98" value="network firewall policy" style="shape=table;startSize=30;container=1;collapsible=0;childLayout=tableLayout;fontStyle=1;align=center;dashed=1;strokeColor=#66B2FF;fontFamily=Tahoma;fillColor=#E6E6E6;" vertex="1" parent="H-WDPKaWVRJ07h-kpi3L-145">
          <mxGeometry x="13.740000000000009" y="42" width="360" height="120" as="geometry" />
        </mxCell>
        <mxCell id="H-WDPKaWVRJ07h-kpi3L-99" value="" style="shape=tableRow;horizontal=0;startSize=0;swimlaneHead=0;swimlaneBody=0;top=0;left=0;bottom=0;right=0;collapsible=0;dropTarget=0;fillColor=none;points=[[0,0.5],[1,0.5]];portConstraint=eastwest;dashed=1;strokeColor=#66B2FF;fontFamily=Tahoma;" vertex="1" parent="H-WDPKaWVRJ07h-kpi3L-98">
          <mxGeometry y="30" width="360" height="20" as="geometry" />
        </mxCell>
        <mxCell id="H-WDPKaWVRJ07h-kpi3L-100" value="source" style="shape=partialRectangle;html=1;whiteSpace=wrap;connectable=0;fillColor=none;top=0;left=0;bottom=0;right=0;overflow=hidden;dashed=1;strokeColor=#66B2FF;fontFamily=Tahoma;" vertex="1" parent="H-WDPKaWVRJ07h-kpi3L-99">
          <mxGeometry width="84" height="20" as="geometry">
            <mxRectangle width="84" height="20" as="alternateBounds" />
          </mxGeometry>
        </mxCell>
        <mxCell id="H-WDPKaWVRJ07h-kpi3L-101" value="port" style="shape=partialRectangle;html=1;whiteSpace=wrap;connectable=0;fillColor=none;top=0;left=0;bottom=0;right=0;overflow=hidden;dashed=1;strokeColor=#66B2FF;fontFamily=Tahoma;" vertex="1" parent="H-WDPKaWVRJ07h-kpi3L-99">
          <mxGeometry x="84" width="60" height="20" as="geometry">
            <mxRectangle width="60" height="20" as="alternateBounds" />
          </mxGeometry>
        </mxCell>
        <mxCell id="H-WDPKaWVRJ07h-kpi3L-102" value="protocol" style="shape=partialRectangle;html=1;whiteSpace=wrap;connectable=0;fillColor=none;top=0;left=0;bottom=0;right=0;overflow=hidden;dashed=1;strokeColor=#66B2FF;fontFamily=Tahoma;" vertex="1" parent="H-WDPKaWVRJ07h-kpi3L-99">
          <mxGeometry x="144" width="72" height="20" as="geometry">
            <mxRectangle width="72" height="20" as="alternateBounds" />
          </mxGeometry>
        </mxCell>
        <mxCell id="H-WDPKaWVRJ07h-kpi3L-103" value="destination" style="shape=partialRectangle;html=1;whiteSpace=wrap;connectable=0;fillColor=none;top=0;left=0;bottom=0;right=0;overflow=hidden;dashed=1;strokeColor=#66B2FF;fontFamily=Tahoma;" vertex="1" parent="H-WDPKaWVRJ07h-kpi3L-99">
          <mxGeometry x="216" width="81" height="20" as="geometry">
            <mxRectangle width="81" height="20" as="alternateBounds" />
          </mxGeometry>
        </mxCell>
        <mxCell id="H-WDPKaWVRJ07h-kpi3L-104" value="action" style="shape=partialRectangle;html=1;whiteSpace=wrap;connectable=0;fillColor=none;top=0;left=0;bottom=0;right=0;overflow=hidden;dashed=1;strokeColor=#66B2FF;fontFamily=Tahoma;" vertex="1" parent="H-WDPKaWVRJ07h-kpi3L-99">
          <mxGeometry x="297" width="63" height="20" as="geometry">
            <mxRectangle width="63" height="20" as="alternateBounds" />
          </mxGeometry>
        </mxCell>
        <mxCell id="H-WDPKaWVRJ07h-kpi3L-105" value="" style="shape=tableRow;horizontal=0;startSize=0;swimlaneHead=0;swimlaneBody=0;top=0;left=0;bottom=0;right=0;collapsible=0;dropTarget=0;fillColor=none;points=[[0,0.5],[1,0.5]];portConstraint=eastwest;dashed=1;strokeColor=#66B2FF;fontFamily=Tahoma;" vertex="1" parent="H-WDPKaWVRJ07h-kpi3L-98">
          <mxGeometry y="50" width="360" height="70" as="geometry" />
        </mxCell>
        <mxCell id="H-WDPKaWVRJ07h-kpi3L-106" value="10.13.1.0/24&lt;br&gt;10.13.2.0/24&lt;br&gt;10.13.3.0/24" style="shape=partialRectangle;html=1;whiteSpace=wrap;connectable=0;fillColor=none;top=0;left=0;bottom=0;right=0;overflow=hidden;dashed=1;strokeColor=#66B2FF;fontFamily=Tahoma;" vertex="1" parent="H-WDPKaWVRJ07h-kpi3L-105">
          <mxGeometry width="84" height="70" as="geometry">
            <mxRectangle width="84" height="70" as="alternateBounds" />
          </mxGeometry>
        </mxCell>
        <mxCell id="H-WDPKaWVRJ07h-kpi3L-107" value="*" style="shape=partialRectangle;html=1;whiteSpace=wrap;connectable=0;fillColor=none;top=0;left=0;bottom=0;right=0;overflow=hidden;dashed=1;strokeColor=#66B2FF;fontFamily=Tahoma;" vertex="1" parent="H-WDPKaWVRJ07h-kpi3L-105">
          <mxGeometry x="84" width="60" height="70" as="geometry">
            <mxRectangle width="60" height="70" as="alternateBounds" />
          </mxGeometry>
        </mxCell>
        <mxCell id="H-WDPKaWVRJ07h-kpi3L-108" value="any" style="shape=partialRectangle;html=1;whiteSpace=wrap;connectable=0;fillColor=none;top=0;left=0;bottom=0;right=0;overflow=hidden;dashed=1;strokeColor=#66B2FF;fontFamily=Tahoma;" vertex="1" parent="H-WDPKaWVRJ07h-kpi3L-105">
          <mxGeometry x="144" width="72" height="70" as="geometry">
            <mxRectangle width="72" height="70" as="alternateBounds" />
          </mxGeometry>
        </mxCell>
        <mxCell id="H-WDPKaWVRJ07h-kpi3L-109" value="10.13.1.0/24&lt;br style=&quot;border-color: var(--border-color);&quot;&gt;10.13.2.0/24&lt;br style=&quot;border-color: var(--border-color);&quot;&gt;10.13.3.0/24" style="shape=partialRectangle;html=1;whiteSpace=wrap;connectable=0;fillColor=none;top=0;left=0;bottom=0;right=0;overflow=hidden;dashed=1;strokeColor=#66B2FF;fontFamily=Tahoma;" vertex="1" parent="H-WDPKaWVRJ07h-kpi3L-105">
          <mxGeometry x="216" width="81" height="70" as="geometry">
            <mxRectangle width="81" height="70" as="alternateBounds" />
          </mxGeometry>
        </mxCell>
        <mxCell id="H-WDPKaWVRJ07h-kpi3L-110" value="allow" style="shape=partialRectangle;html=1;whiteSpace=wrap;connectable=0;fillColor=none;top=0;left=0;bottom=0;right=0;overflow=hidden;dashed=1;strokeColor=#66B2FF;fontFamily=Tahoma;" vertex="1" parent="H-WDPKaWVRJ07h-kpi3L-105">
          <mxGeometry x="297" width="63" height="70" as="geometry">
            <mxRectangle width="63" height="70" as="alternateBounds" />
          </mxGeometry>
        </mxCell>
        <mxCell id="H-WDPKaWVRJ07h-kpi3L-129" value="" style="group" vertex="1" connectable="0" parent="1">
          <mxGeometry x="-514" y="464" width="219" height="78" as="geometry" />
        </mxCell>
        <mxCell id="H-WDPKaWVRJ07h-kpi3L-130" value="spokes-ne-to-hub-routes" style="swimlane;fontStyle=0;childLayout=stackLayout;horizontal=1;startSize=26;fillColor=none;horizontalStack=0;resizeParent=1;resizeParentMax=0;resizeLast=0;collapsible=1;marginBottom=0;html=1;dashed=1;strokeColor=#66B2FF;fontFamily=Tahoma;" vertex="1" parent="H-WDPKaWVRJ07h-kpi3L-129">
          <mxGeometry width="219" height="78" as="geometry">
            <mxRectangle x="-123" y="970" width="130" height="30" as="alternateBounds" />
          </mxGeometry>
        </mxCell>
        <mxCell id="H-WDPKaWVRJ07h-kpi3L-131" value="10.13.1.0/24&amp;nbsp;-&amp;gt; 10.12.3.4" style="text;strokeColor=none;fillColor=none;align=left;verticalAlign=top;spacingLeft=4;spacingRight=4;overflow=hidden;rotatable=0;points=[[0,0.5],[1,0.5]];portConstraint=eastwest;whiteSpace=wrap;html=1;dashed=1;fontFamily=Tahoma;" vertex="1" parent="H-WDPKaWVRJ07h-kpi3L-130">
          <mxGeometry y="26" width="219" height="26" as="geometry" />
        </mxCell>
        <mxCell id="H-WDPKaWVRJ07h-kpi3L-132" value="10.13.2.0/24&amp;nbsp;-&amp;gt; 10.12.3.4" style="text;strokeColor=none;fillColor=none;align=left;verticalAlign=top;spacingLeft=4;spacingRight=4;overflow=hidden;rotatable=0;points=[[0,0.5],[1,0.5]];portConstraint=eastwest;whiteSpace=wrap;html=1;dashed=1;fontFamily=Tahoma;" vertex="1" parent="H-WDPKaWVRJ07h-kpi3L-130">
          <mxGeometry y="52" width="219" height="26" as="geometry" />
        </mxCell>
        <mxCell id="H-WDPKaWVRJ07h-kpi3L-134" value="" style="aspect=fixed;html=1;points=[];align=center;image;fontSize=12;image=img/lib/azure2/networking/Route_Tables.svg;dashed=1;strokeColor=#66B2FF;fontFamily=Tahoma;fillColor=#E6E6E6;" vertex="1" parent="H-WDPKaWVRJ07h-kpi3L-129">
          <mxGeometry x="194.26451612903224" y="1" width="24" height="23.25" as="geometry" />
        </mxCell>
        <mxCell id="H-WDPKaWVRJ07h-kpi3L-149" value="" style="shape=curlyBracket;whiteSpace=wrap;html=1;rounded=1;flipH=1;labelPosition=right;verticalLabelPosition=middle;align=left;verticalAlign=middle;fontSize=16;size=0.5;fontColor=#808080;" vertex="1" parent="1">
          <mxGeometry x="-219" y="93" width="106" height="186" as="geometry" />
        </mxCell>
        <mxCell id="H-WDPKaWVRJ07h-kpi3L-153" value="" style="endArrow=classic;startArrow=classic;html=1;rounded=0;fontSize=12;startSize=8;endSize=8;curved=1;" edge="1" parent="1">
          <mxGeometry width="50" height="50" relative="1" as="geometry">
            <mxPoint x="83" y="836" as="sourcePoint" />
            <mxPoint x="133" y="786" as="targetPoint" />
          </mxGeometry>
        </mxCell>
        <mxCell id="H-WDPKaWVRJ07h-kpi3L-159" value="" style="endArrow=classic;startArrow=classic;html=1;rounded=0;fontSize=12;startSize=8;endSize=8;curved=1;strokeColor=#FF0000;strokeWidth=3;" edge="1" parent="1">
          <mxGeometry width="50" height="50" relative="1" as="geometry">
            <mxPoint x="7" y="215" as="sourcePoint" />
            <mxPoint x="130" y="491" as="targetPoint" />
            <Array as="points">
              <mxPoint x="61" y="209" />
              <mxPoint x="73" y="353" />
              <mxPoint x="53" y="493" />
            </Array>
          </mxGeometry>
        </mxCell>
        <mxCell id="H-WDPKaWVRJ07h-kpi3L-160" value="" style="endArrow=classic;startArrow=classic;html=1;rounded=0;fontSize=12;startSize=8;endSize=8;curved=1;strokeColor=#FF0000;strokeWidth=3;exitX=-0.033;exitY=0.506;exitDx=0;exitDy=0;exitPerimeter=0;" edge="1" parent="1" source="H-WDPKaWVRJ07h-kpi3L-47">
          <mxGeometry width="50" height="50" relative="1" as="geometry">
            <mxPoint x="135" y="-99" as="sourcePoint" />
            <mxPoint x="7" y="178" as="targetPoint" />
            <Array as="points">
              <mxPoint x="69" y="-30" />
              <mxPoint x="69" y="39" />
              <mxPoint x="89" y="179" />
            </Array>
          </mxGeometry>
        </mxCell>
        <mxCell id="H-WDPKaWVRJ07h-kpi3L-161" value="" style="endArrow=classic;startArrow=classic;html=1;rounded=0;fontSize=12;startSize=8;endSize=8;curved=1;strokeColor=#FF0000;strokeWidth=3;" edge="1" parent="1">
          <mxGeometry width="50" height="50" relative="1" as="geometry">
            <mxPoint x="7" y="196" as="sourcePoint" />
            <mxPoint x="125" y="235" as="targetPoint" />
            <Array as="points">
              <mxPoint x="76" y="193" />
              <mxPoint x="86" y="236" />
            </Array>
          </mxGeometry>
        </mxCell>
        <mxCell id="H-WDPKaWVRJ07h-kpi3L-162" value="routing" style="endArrow=classic;startArrow=classic;html=1;rounded=0;fontSize=12;startSize=8;endSize=8;curved=1;strokeColor=#FF0000;strokeWidth=3;" edge="1" parent="1">
          <mxGeometry width="50" height="50" relative="1" as="geometry">
            <mxPoint x="-461" y="8" as="sourcePoint" />
            <mxPoint x="-351" y="9" as="targetPoint" />
          </mxGeometry>
        </mxCell>
      </root>
    </mxGraphModel>
  </diagram>
</mxfile>
